<mxfile host="www.draw.io" modified="2019-11-27T07:17:24.502Z" agent="Mozilla/5.0 (Windows NT 10.0; Win64; x64) AppleWebKit/537.36 (KHTML, like Gecko) Chrome/78.0.3904.108 Safari/537.36" etag="_0VFTk6NCYbV9y7dncdq" version="12.3.1" type="github" pages="1">
  <diagram id="o-UFxtaxaCjPeBru45kK" name="Page-1">
    <mxGraphModel dx="1224" dy="674" grid="1" gridSize="10" guides="1" tooltips="1" connect="1" arrows="1" fold="1" page="1" pageScale="1" pageWidth="850" pageHeight="1100" math="0" shadow="0">
      <root>
        <mxCell id="0"/>
        <mxCell id="1" parent="0"/>
        <mxCell id="L48Uhroj51GNgtLhOd8K-28" value="" style="edgeStyle=orthogonalEdgeStyle;rounded=0;orthogonalLoop=1;jettySize=auto;html=1;" edge="1" parent="1">
          <mxGeometry relative="1" as="geometry">
            <mxPoint x="410" y="519.5" as="sourcePoint"/>
            <mxPoint x="330" y="519.5" as="targetPoint"/>
          </mxGeometry>
        </mxCell>
        <mxCell id="L48Uhroj51GNgtLhOd8K-16" value="" style="whiteSpace=wrap;html=1;aspect=fixed;" vertex="1" parent="1">
          <mxGeometry x="510" y="495" width="70" height="70" as="geometry"/>
        </mxCell>
        <mxCell id="L48Uhroj51GNgtLhOd8K-1" value="SOC&lt;br&gt;(H6)" style="rounded=0;whiteSpace=wrap;html=1;" vertex="1" parent="1">
          <mxGeometry x="320" y="160" width="280" height="200" as="geometry"/>
        </mxCell>
        <mxCell id="L48Uhroj51GNgtLhOd8K-6" value="" style="edgeStyle=orthogonalEdgeStyle;rounded=0;orthogonalLoop=1;jettySize=auto;html=1;" edge="1" parent="1" source="L48Uhroj51GNgtLhOd8K-2" target="L48Uhroj51GNgtLhOd8K-5">
          <mxGeometry relative="1" as="geometry"/>
        </mxCell>
        <mxCell id="L48Uhroj51GNgtLhOd8K-2" value="Adapter&lt;br&gt;12V/1.5A" style="rounded=0;whiteSpace=wrap;html=1;" vertex="1" parent="1">
          <mxGeometry x="80" y="400" width="90" height="60" as="geometry"/>
        </mxCell>
        <mxCell id="L48Uhroj51GNgtLhOd8K-4" value="" style="endArrow=classic;html=1;" edge="1" parent="1">
          <mxGeometry width="50" height="50" relative="1" as="geometry">
            <mxPoint x="20" y="430" as="sourcePoint"/>
            <mxPoint x="80" y="430" as="targetPoint"/>
          </mxGeometry>
        </mxCell>
        <mxCell id="L48Uhroj51GNgtLhOd8K-5" value="BUCK" style="rounded=0;whiteSpace=wrap;html=1;" vertex="1" parent="1">
          <mxGeometry x="240" y="400" width="90" height="60" as="geometry"/>
        </mxCell>
        <mxCell id="L48Uhroj51GNgtLhOd8K-7" value="" style="endArrow=classic;html=1;" edge="1" parent="1">
          <mxGeometry width="50" height="50" relative="1" as="geometry">
            <mxPoint x="380" y="440" as="sourcePoint"/>
            <mxPoint x="380" y="360" as="targetPoint"/>
          </mxGeometry>
        </mxCell>
        <mxCell id="L48Uhroj51GNgtLhOd8K-8" value="" style="endArrow=none;html=1;" edge="1" parent="1">
          <mxGeometry width="50" height="50" relative="1" as="geometry">
            <mxPoint x="330" y="440" as="sourcePoint"/>
            <mxPoint x="380" y="440" as="targetPoint"/>
          </mxGeometry>
        </mxCell>
        <mxCell id="L48Uhroj51GNgtLhOd8K-25" value="" style="edgeStyle=orthogonalEdgeStyle;rounded=0;orthogonalLoop=1;jettySize=auto;html=1;" edge="1" parent="1">
          <mxGeometry relative="1" as="geometry">
            <mxPoint x="330" y="551" as="sourcePoint"/>
            <mxPoint x="410" y="551" as="targetPoint"/>
          </mxGeometry>
        </mxCell>
        <mxCell id="L48Uhroj51GNgtLhOd8K-9" value="Li-Ion&lt;br&gt;Charger&lt;br&gt;8000mAh" style="rounded=0;whiteSpace=wrap;html=1;" vertex="1" parent="1">
          <mxGeometry x="240" y="500" width="90" height="60" as="geometry"/>
        </mxCell>
        <mxCell id="L48Uhroj51GNgtLhOd8K-11" value="" style="edgeStyle=orthogonalEdgeStyle;rounded=0;orthogonalLoop=1;jettySize=auto;html=1;" edge="1" parent="1">
          <mxGeometry relative="1" as="geometry">
            <mxPoint x="190" y="530" as="sourcePoint"/>
            <mxPoint x="240" y="530" as="targetPoint"/>
          </mxGeometry>
        </mxCell>
        <mxCell id="L48Uhroj51GNgtLhOd8K-12" value="" style="endArrow=none;html=1;" edge="1" parent="1">
          <mxGeometry width="50" height="50" relative="1" as="geometry">
            <mxPoint x="190" y="530" as="sourcePoint"/>
            <mxPoint x="190" y="430" as="targetPoint"/>
          </mxGeometry>
        </mxCell>
        <mxCell id="L48Uhroj51GNgtLhOd8K-13" value="" style="image;html=1;labelBackgroundColor=#ffffff;image=img/lib/clip_art/general/Battery_allstates_128x128.png" vertex="1" parent="1">
          <mxGeometry x="515" y="500" width="60" height="60" as="geometry"/>
        </mxCell>
        <mxCell id="L48Uhroj51GNgtLhOd8K-20" value="OVP" style="rounded=0;whiteSpace=wrap;html=1;" vertex="1" parent="1">
          <mxGeometry x="350" y="500" width="40" height="60" as="geometry"/>
        </mxCell>
        <mxCell id="L48Uhroj51GNgtLhOd8K-21" value="" style="rounded=0;whiteSpace=wrap;html=1;" vertex="1" parent="1">
          <mxGeometry x="410" y="500" width="50" height="60" as="geometry"/>
        </mxCell>
        <mxCell id="L48Uhroj51GNgtLhOd8K-22" value="" style="shape=image;html=1;verticalAlign=top;verticalLabelPosition=bottom;labelBackgroundColor=#ffffff;imageAspect=0;aspect=fixed;image=https://cdn2.iconfinder.com/data/icons/miscellaneous-12/24/miscellaneous-25-128.png" vertex="1" parent="1">
          <mxGeometry x="415" y="520" width="40" height="40" as="geometry"/>
        </mxCell>
        <mxCell id="L48Uhroj51GNgtLhOd8K-23" value="GAUGE" style="text;html=1;align=center;verticalAlign=middle;resizable=0;points=[];;autosize=1;" vertex="1" parent="1">
          <mxGeometry x="405" y="500" width="60" height="20" as="geometry"/>
        </mxCell>
        <mxCell id="L48Uhroj51GNgtLhOd8K-27" value="" style="edgeStyle=orthogonalEdgeStyle;rounded=0;orthogonalLoop=1;jettySize=auto;html=1;" edge="1" parent="1">
          <mxGeometry relative="1" as="geometry">
            <mxPoint x="460" y="550.5" as="sourcePoint"/>
            <mxPoint x="510" y="550.5" as="targetPoint"/>
          </mxGeometry>
        </mxCell>
        <mxCell id="L48Uhroj51GNgtLhOd8K-29" value="" style="edgeStyle=orthogonalEdgeStyle;rounded=0;orthogonalLoop=1;jettySize=auto;html=1;" edge="1" parent="1">
          <mxGeometry relative="1" as="geometry">
            <mxPoint x="510" y="519" as="sourcePoint"/>
            <mxPoint x="460" y="519" as="targetPoint"/>
          </mxGeometry>
        </mxCell>
        <mxCell id="L48Uhroj51GNgtLhOd8K-30" value="" style="endArrow=classic;html=1;" edge="1" parent="1">
          <mxGeometry width="50" height="50" relative="1" as="geometry">
            <mxPoint x="440" y="480" as="sourcePoint"/>
            <mxPoint x="440" y="360" as="targetPoint"/>
          </mxGeometry>
        </mxCell>
        <mxCell id="L48Uhroj51GNgtLhOd8K-31" value="" style="endArrow=none;html=1;" edge="1" parent="1">
          <mxGeometry width="50" height="50" relative="1" as="geometry">
            <mxPoint x="280" y="500" as="sourcePoint"/>
            <mxPoint x="280" y="480" as="targetPoint"/>
          </mxGeometry>
        </mxCell>
        <mxCell id="L48Uhroj51GNgtLhOd8K-32" value="" style="endArrow=none;html=1;" edge="1" parent="1">
          <mxGeometry width="50" height="50" relative="1" as="geometry">
            <mxPoint x="280" y="480" as="sourcePoint"/>
            <mxPoint x="440" y="480" as="targetPoint"/>
          </mxGeometry>
        </mxCell>
        <mxCell id="L48Uhroj51GNgtLhOd8K-33" value="Boost Mode" style="text;html=1;align=center;verticalAlign=middle;resizable=0;points=[];;labelBackgroundColor=#ffffff;" vertex="1" connectable="0" parent="L48Uhroj51GNgtLhOd8K-32">
          <mxGeometry x="0.4196" relative="1" as="geometry">
            <mxPoint as="offset"/>
          </mxGeometry>
        </mxCell>
        <mxCell id="L48Uhroj51GNgtLhOd8K-34" value="" style="edgeStyle=orthogonalEdgeStyle;rounded=0;orthogonalLoop=1;jettySize=auto;html=1;" edge="1" parent="1" target="L48Uhroj51GNgtLhOd8K-35">
          <mxGeometry relative="1" as="geometry">
            <mxPoint x="599.9999999999999" y="320" as="sourcePoint"/>
          </mxGeometry>
        </mxCell>
        <mxCell id="L48Uhroj51GNgtLhOd8K-35" value="" style="rounded=0;whiteSpace=wrap;html=1;" vertex="1" parent="1">
          <mxGeometry x="670" y="290" width="90" height="60" as="geometry"/>
        </mxCell>
        <mxCell id="L48Uhroj51GNgtLhOd8K-37" value="" style="shape=image;html=1;verticalAlign=top;verticalLabelPosition=bottom;labelBackgroundColor=#ffffff;imageAspect=0;aspect=fixed;image=https://cdn2.iconfinder.com/data/icons/fatcow/32x32/led.png" vertex="1" parent="1">
          <mxGeometry x="720" y="304" width="32" height="32" as="geometry"/>
        </mxCell>
        <mxCell id="L48Uhroj51GNgtLhOd8K-38" value="" style="rounded=0;whiteSpace=wrap;html=1;" vertex="1" parent="1">
          <mxGeometry x="670" y="220" width="90" height="60" as="geometry"/>
        </mxCell>
        <mxCell id="L48Uhroj51GNgtLhOd8K-40" value="" style="shape=image;html=1;verticalAlign=top;verticalLabelPosition=bottom;labelBackgroundColor=#ffffff;imageAspect=0;aspect=fixed;image=https://cdn2.iconfinder.com/data/icons/freecns-cumulus/16/519555-051_SDCard-128.png" vertex="1" parent="1">
          <mxGeometry x="680" y="220" width="58" height="58" as="geometry"/>
        </mxCell>
        <mxCell id="L48Uhroj51GNgtLhOd8K-41" value="" style="endArrow=classic;startArrow=classic;html=1;exitX=1.001;exitY=0.449;exitDx=0;exitDy=0;exitPerimeter=0;" edge="1" parent="1" source="L48Uhroj51GNgtLhOd8K-1">
          <mxGeometry width="50" height="50" relative="1" as="geometry">
            <mxPoint x="620" y="300" as="sourcePoint"/>
            <mxPoint x="670" y="250" as="targetPoint"/>
          </mxGeometry>
        </mxCell>
        <mxCell id="L48Uhroj51GNgtLhOd8K-42" value="&lt;br&gt;AP6256" style="rounded=0;whiteSpace=wrap;html=1;" vertex="1" parent="1">
          <mxGeometry x="670" y="150" width="90" height="60" as="geometry"/>
        </mxCell>
        <mxCell id="L48Uhroj51GNgtLhOd8K-44" value="" style="endArrow=classic;startArrow=classic;html=1;exitX=1.001;exitY=0.449;exitDx=0;exitDy=0;exitPerimeter=0;" edge="1" parent="1">
          <mxGeometry width="50" height="50" relative="1" as="geometry">
            <mxPoint x="600.2799999999997" y="179.80000000000007" as="sourcePoint"/>
            <mxPoint x="670" y="180" as="targetPoint"/>
          </mxGeometry>
        </mxCell>
        <mxCell id="L48Uhroj51GNgtLhOd8K-45" value="" style="html=1;verticalLabelPosition=bottom;align=center;labelBackgroundColor=#ffffff;verticalAlign=top;strokeWidth=2;strokeColor=#0080F0;shadow=0;dashed=0;shape=mxgraph.ios7.icons.wifi;pointerEvents=1" vertex="1" parent="1">
          <mxGeometry x="700" y="154" width="29.7" height="20" as="geometry"/>
        </mxCell>
        <mxCell id="L48Uhroj51GNgtLhOd8K-46" value="" style="endArrow=classic;startArrow=classic;html=1;" edge="1" parent="1">
          <mxGeometry width="50" height="50" relative="1" as="geometry">
            <mxPoint x="560" y="160" as="sourcePoint"/>
            <mxPoint x="560" y="80" as="targetPoint"/>
          </mxGeometry>
        </mxCell>
        <mxCell id="L48Uhroj51GNgtLhOd8K-47" value="ZIGBEE&lt;br&gt;Series 2" style="rounded=0;whiteSpace=wrap;html=1;" vertex="1" parent="1">
          <mxGeometry x="520" y="20" width="90" height="60" as="geometry"/>
        </mxCell>
        <mxCell id="L48Uhroj51GNgtLhOd8K-49" value="" style="endArrow=classic;startArrow=classic;html=1;" edge="1" parent="1">
          <mxGeometry width="50" height="50" relative="1" as="geometry">
            <mxPoint x="460" y="160" as="sourcePoint"/>
            <mxPoint x="460" y="80" as="targetPoint"/>
          </mxGeometry>
        </mxCell>
        <mxCell id="L48Uhroj51GNgtLhOd8K-50" value="Z-Wave&lt;br&gt;Z-700" style="rounded=0;whiteSpace=wrap;html=1;" vertex="1" parent="1">
          <mxGeometry x="420" y="20" width="90" height="60" as="geometry"/>
        </mxCell>
        <mxCell id="L48Uhroj51GNgtLhOd8K-51" value="" style="endArrow=classic;startArrow=classic;html=1;" edge="1" parent="1">
          <mxGeometry width="50" height="50" relative="1" as="geometry">
            <mxPoint x="360" y="160" as="sourcePoint"/>
            <mxPoint x="360" y="80" as="targetPoint"/>
          </mxGeometry>
        </mxCell>
        <mxCell id="L48Uhroj51GNgtLhOd8K-52" value="4G- Dongle" style="rounded=0;whiteSpace=wrap;html=1;" vertex="1" parent="1">
          <mxGeometry x="320" y="20" width="90" height="60" as="geometry"/>
        </mxCell>
        <mxCell id="L48Uhroj51GNgtLhOd8K-57" value="USB 2 UART&lt;br&gt;CY7C65215A" style="rounded=0;whiteSpace=wrap;html=1;" vertex="1" parent="1">
          <mxGeometry x="190" y="180" width="90" height="60" as="geometry"/>
        </mxCell>
        <mxCell id="L48Uhroj51GNgtLhOd8K-58" value="RS485&lt;br&gt;SN65HVD72&amp;nbsp;" style="rounded=0;whiteSpace=wrap;html=1;" vertex="1" parent="1">
          <mxGeometry x="60" y="180" width="90" height="60" as="geometry"/>
        </mxCell>
        <mxCell id="L48Uhroj51GNgtLhOd8K-63" value="RS-485" style="text;html=1;align=center;verticalAlign=middle;resizable=0;points=[];;autosize=1;" vertex="1" parent="1">
          <mxGeometry y="200" width="60" height="20" as="geometry"/>
        </mxCell>
        <mxCell id="L48Uhroj51GNgtLhOd8K-64" value="" style="endArrow=classic;startArrow=classic;html=1;exitX=1;exitY=0.5;exitDx=0;exitDy=0;" edge="1" parent="1" source="L48Uhroj51GNgtLhOd8K-57">
          <mxGeometry width="50" height="50" relative="1" as="geometry">
            <mxPoint x="270" y="260" as="sourcePoint"/>
            <mxPoint x="320" y="210" as="targetPoint"/>
          </mxGeometry>
        </mxCell>
        <mxCell id="L48Uhroj51GNgtLhOd8K-65" value="" style="endArrow=classic;startArrow=classic;html=1;exitX=1;exitY=0.5;exitDx=0;exitDy=0;" edge="1" parent="1">
          <mxGeometry width="50" height="50" relative="1" as="geometry">
            <mxPoint x="150" y="210" as="sourcePoint"/>
            <mxPoint x="190" y="210" as="targetPoint"/>
          </mxGeometry>
        </mxCell>
        <mxCell id="L48Uhroj51GNgtLhOd8K-68" value="" style="edgeStyle=orthogonalEdgeStyle;rounded=0;orthogonalLoop=1;jettySize=auto;html=1;entryX=0;entryY=0.75;entryDx=0;entryDy=0;" edge="1" parent="1" source="L48Uhroj51GNgtLhOd8K-66" target="L48Uhroj51GNgtLhOd8K-1">
          <mxGeometry relative="1" as="geometry">
            <mxPoint x="285" y="310" as="targetPoint"/>
          </mxGeometry>
        </mxCell>
        <mxCell id="L48Uhroj51GNgtLhOd8K-66" value="Button" style="labelPosition=center;verticalLabelPosition=middle;align=center;html=1;shape=mxgraph.basic.shaded_button;dx=10;fillColor=#E6E6E6;strokeColor=none;" vertex="1" parent="1">
          <mxGeometry x="105" y="280" width="100" height="60" as="geometry"/>
        </mxCell>
      </root>
    </mxGraphModel>
  </diagram>
</mxfile>
